<svg id="Group_1" data-name="Group 1" xmlns="http://www.w3.org/2000/svg" viewBox="0 0 145 30.505">
  <defs>
    <style>
      .cls-1 {
        fill: #c81f45;
      }
    </style>
  </defs>
  <path id="Path_1" data-name="Path 1" class="cls-1" d="M18.052,17.155H17.3L29.268,5.39V4.943L15.012,17.19,29.285,31.807V15.438L27,17.155h-.721l2.989-2.611v-1.46l-5.256,4.071h-.721l5.977-5.428V10.56l-8.227,6.6H20.3l8.983-8.468V7.863L18.052,17.155Zm-3.418-.361L29.268,1.8H0L14.634,16.795Z" transform="translate(0 -1.491)"/>
  <path id="Path_2" data-name="Path 2" class="cls-1" d="M588.906,109.3h-4.844v2.628h1.546v1.443l-.223.017c-.275.017-.515.017-.721.017a3.115,3.115,0,0,1-3.435-3.229,3.466,3.466,0,0,1,3.659-3.521,7.647,7.647,0,0,1,3.8,1.048v-3.092a11.557,11.557,0,0,0-4.346-.807c-4.449,0-7.437,2.645-7.437,6.6a5.847,5.847,0,0,0,2.13,4.5,7.664,7.664,0,0,0,5.256,1.58,22.375,22.375,0,0,0,4.62-.567V109.3Zm1.305,7.008h4.277v-5.17h.928a1.772,1.772,0,0,1,1.254.326,2.076,2.076,0,0,1,.567.636,15.894,15.894,0,0,1,1.237,2.37l.756,1.838h4.26l-1.46-3.263c-.24-.515-.55-1.134-.739-1.46a2.681,2.681,0,0,0-1.271-1.237,2.991,2.991,0,0,0,1.975-2.886,3.289,3.289,0,0,0-1.752-2.9,5.307,5.307,0,0,0-1.7-.532c-.653-.052-1.563-.086-2.7-.086h-5.6V116.3Zm4.277-7.059v-3.3h.979c1.666,0,2.387.481,2.387,1.6,0,1.185-.756,1.7-2.422,1.7Zm9.533,7.059h4.328v-12.35h-4.328V116.3Zm5.891,0h6.716a6.783,6.783,0,0,0,3.195-.653,5.952,5.952,0,0,0,2.989-5.359,6.23,6.23,0,0,0-1.752-4.431,6.792,6.792,0,0,0-5.153-1.907h-5.994V116.3Zm4.328-2.954v-6.475h1.013c2.13,0,3.229,1.082,3.229,3.263s-1,3.212-3.092,3.212Z" transform="translate(-477.811 -85.971)"/>
  <path id="Path_3" data-name="Path 3" class="cls-1" d="M196.7,116.3h4.225v-4.4h1.048a11.886,11.886,0,0,0,2.834-.258,3.806,3.806,0,0,0,3.057-3.933,3.473,3.473,0,0,0-1.374-2.783c-.962-.739-1.941-.979-4.174-.979H196.7V116.3Zm4.225-6.7v-3.332h.618c1.769,0,2.319.378,2.319,1.649,0,1.219-.6,1.683-2.181,1.683Zm14.5-5.805c-4.054,0-6.716,2.508-6.716,6.321,0,3.847,2.662,6.338,6.716,6.338s6.716-2.508,6.716-6.338c.017-3.813-2.645-6.321-6.716-6.321Zm0,3.607c1.46,0,2.37,1.048,2.37,2.714,0,1.7-.893,2.714-2.37,2.714s-2.387-1.013-2.387-2.714c0-1.683.91-2.714,2.387-2.714Zm10.855,8.9h2.594l1.7-6.115h.034l1.8,6.115H235l4.191-12.35H235.14L233.8,109.5h-.034l-1.632-5.548h-3.126l-1.546,5.548h-.034L226,103.955h-4.054l4.328,12.35Zm13.38,0h9.327v-2.662h-5.05v-2.3H248.5v-2.576h-4.569v-2.216h5v-2.611h-9.275V116.3Zm10.443,0h4.277v-5.17h.928a1.772,1.772,0,0,1,1.254.326,2.076,2.076,0,0,1,.567.636,15.894,15.894,0,0,1,1.237,2.37l.756,1.838h4.26l-1.46-3.263c-.24-.515-.55-1.134-.739-1.46a2.681,2.681,0,0,0-1.271-1.237,2.991,2.991,0,0,0,1.975-2.886,3.289,3.289,0,0,0-1.752-2.9,5.307,5.307,0,0,0-1.7-.532c-.653-.052-1.563-.086-2.7-.086h-5.6V116.3Zm4.277-7.059v-3.3h.979c1.666,0,2.387.481,2.387,1.6,0,1.185-.756,1.7-2.422,1.7Z" transform="translate(-162.915 -85.971)"/>
  <path id="Path_4" data-name="Path 4" d="M210.967.206h-1.22V13.844L197.931.206H196.9V15.819h1.219V2.181l11.851,13.638h1.013V.206ZM229.6,8a8.275,8.275,0,0,0-16.541,0A8.275,8.275,0,0,0,229.6,8ZM228.3,8a6.957,6.957,0,0,1-13.913,0A6.957,6.957,0,0,1,228.3,8Zm3.4-7.8V15.819h1.219V8.33h2.113c1.872,0,2.473.258,4.346,3.212l2.714,4.277h1.426l-3.521-5.393a7.4,7.4,0,0,0-2.078-2.387c1.992-.739,2.971-1.992,2.971-3.8,0-2.078-1.357-4.036-5.17-4.036H231.7Zm1.219,1.013h2.542c2.868,0,4.122,1.288,4.122,3.04,0,1.872-1.323,3.075-4.071,3.075h-2.594V1.219ZM254.508.206H241.575V1.219h5.857v14.6h1.22V1.219h5.857V.206Zm13.9,0h-1.22V7.42H256.776V.206h-1.219V15.819h1.219v-7.4h10.409V15.8h1.22V.206Zm11.3,0h-8.519V15.819h8.691V14.806h-7.489V8.468H279.5V7.454h-7.111V1.219h7.317V.206Zm1.821,0V15.819h1.219V8.33h2.113c1.872,0,2.473.258,4.346,3.212l2.731,4.277h1.426l-3.521-5.393a7.4,7.4,0,0,0-2.078-2.387c1.992-.739,2.971-1.992,2.971-3.8,0-2.078-1.357-4.036-5.17-4.036h-4.036Zm1.22,1.013h2.542c2.868,0,4.122,1.288,4.122,3.04,0,1.872-1.323,3.075-4.071,3.075h-2.594V1.219ZM307.857.206h-1.219V13.844L294.8.206h-1.031V15.819h1.22V2.181l11.851,13.638h1.013V.206Z" transform="translate(-163.08)"/>
</svg>
